<svg width="63" height="12" viewBox="0 0 63 12" fill="none" xmlns="http://www.w3.org/2000/svg">
<path d="M0.25293 7.34961C0.25293 7.16732 0.558268 6.77767 1.16895 6.18066C1.78418 5.5791 2.39714 5.02311 3.00781 4.5127L3.93066 3.74707C3.98079 3.71061 4.02865 3.69238 4.07422 3.69238C4.17448 3.69238 4.33626 3.8291 4.55957 4.10254C4.78743 4.37598 4.90137 4.59017 4.90137 4.74512C4.90137 4.81803 4.87174 4.88411 4.8125 4.94336L2.0918 7.34961L4.88086 9.75586C4.9401 9.8151 4.96973 9.88118 4.96973 9.9541C4.96973 10.109 4.84668 10.3232 4.60059 10.5967C4.35905 10.8701 4.18359 11.0068 4.07422 11.0068C4.02865 11.0068 3.98079 10.9886 3.93066 10.9521C3.88053 10.9111 3.8099 10.8542 3.71875 10.7812C3.63216 10.7083 3.46126 10.5648 3.20605 10.3506C2.95085 10.1318 2.70703 9.9222 2.47461 9.72168C2.24674 9.52116 1.98926 9.29102 1.70215 9.03125C1.4196 8.76693 1.17578 8.53223 0.970703 8.32715C0.770182 8.11751 0.599284 7.92383 0.458008 7.74609C0.321289 7.5638 0.25293 7.43164 0.25293 7.34961ZM11.334 7.82812V6.04395C11.0924 5.611 10.7734 5.27376 10.377 5.03223C9.98047 4.79069 9.57031 4.66992 9.14648 4.66992C8.56315 4.66992 8.07096 4.90007 7.66992 5.36035C7.27344 5.81608 7.0752 6.48145 7.0752 7.35645C7.0752 8.19499 7.28939 8.84896 7.71777 9.31836C8.14616 9.78776 8.6543 10.0225 9.24219 10.0225C9.4974 10.0225 9.74805 9.97689 9.99414 9.88574C10.2402 9.79004 10.4635 9.65332 10.6641 9.47559C10.8646 9.29785 11.0264 9.06771 11.1494 8.78516C11.2725 8.49805 11.334 8.17904 11.334 7.82812ZM12.8857 1.78516V9.28418C12.8857 9.34798 12.8903 9.40267 12.8994 9.44824C12.9085 9.48926 12.9268 9.53483 12.9541 9.58496C12.986 9.63053 13.0361 9.66699 13.1045 9.69434C13.1729 9.72168 13.2617 9.73763 13.3711 9.74219C13.7995 9.76042 14.0137 9.85612 14.0137 10.0293C14.0137 10.5762 13.9362 10.918 13.7812 11.0547C13.5306 11.0182 13.2594 11 12.9678 11C12.5576 11 12.1566 11.0182 11.7646 11.0547C11.4775 10.9225 11.334 10.6058 11.334 10.1045V10.043C11.0879 10.4076 10.7393 10.6901 10.2881 10.8906C9.83691 11.0866 9.37207 11.1846 8.89355 11.1846C8.45605 11.1846 8.03678 11.1025 7.63574 10.9385C7.2347 10.7744 6.87012 10.5397 6.54199 10.2344C6.21842 9.92448 5.95866 9.52116 5.7627 9.02441C5.56673 8.52767 5.46875 7.97168 5.46875 7.35645C5.46875 6.74121 5.57129 6.18522 5.77637 5.68848C5.98145 5.19173 6.25488 4.79069 6.59668 4.48535C6.94303 4.17546 7.32812 3.93848 7.75195 3.77441C8.17578 3.61035 8.61784 3.52604 9.07812 3.52148H9.11914C10.0169 3.52148 10.7552 3.85645 11.334 4.52637V2.73535C11.334 2.49382 11.2633 2.32292 11.1221 2.22266C10.9854 2.1224 10.7188 2.06315 10.3223 2.04492C10.263 2.03125 10.2243 2.00163 10.2061 1.95605C10.1924 1.91048 10.1855 1.8125 10.1855 1.66211C10.1855 1.42969 10.2106 1.22461 10.2607 1.04688C10.3109 0.869141 10.361 0.766602 10.4111 0.739258C10.7894 0.789388 11.1517 0.814453 11.498 0.814453C11.7031 0.814453 11.9196 0.80306 12.1475 0.780273C12.3753 0.75293 12.4961 0.739258 12.5098 0.739258C12.6693 0.739258 12.7718 0.780273 12.8174 0.862305C12.8675 0.939779 12.8926 1.12207 12.8926 1.40918C12.8926 1.44108 12.8903 1.50033 12.8857 1.58691C12.8857 1.66895 12.8857 1.73503 12.8857 1.78516ZM19.5098 10.0703C19.1771 10.4212 18.7555 10.6947 18.2451 10.8906C17.7393 11.0866 17.2243 11.1846 16.7002 11.1846C16.0485 11.1846 15.5107 11.0114 15.0869 10.665C14.6631 10.3187 14.4512 9.81738 14.4512 9.16113C14.4512 8.45931 14.7907 7.93066 15.4697 7.5752C15.9801 7.30176 16.8551 7.06478 18.0947 6.86426C18.3271 6.82324 18.7054 6.764 19.2295 6.68652C19.2295 5.91178 19.1315 5.37858 18.9355 5.08691C18.7396 4.79525 18.3636 4.64941 17.8076 4.64941C17.402 4.64941 16.9508 4.74056 16.4541 4.92285C15.9574 5.10514 15.5609 5.35807 15.2646 5.68164C14.8955 5.37174 14.7109 5.06868 14.7109 4.77246C14.7109 4.51725 14.8864 4.29167 15.2373 4.0957C15.5882 3.89518 16.0007 3.74935 16.4746 3.6582C16.9531 3.5625 17.4316 3.51465 17.9102 3.51465C18.3613 3.51465 18.7555 3.57161 19.0928 3.68555C19.4346 3.79492 19.7354 3.97721 19.9951 4.23242C20.2549 4.48763 20.4508 4.83854 20.583 5.28516C20.7197 5.73177 20.7881 6.27409 20.7881 6.91211V9.09961C20.7881 9.28646 20.8018 9.42773 20.8291 9.52344C20.861 9.61458 20.8952 9.67155 20.9316 9.69434C20.9681 9.71257 21.0273 9.72624 21.1094 9.73535C21.2507 9.74902 21.3555 9.7627 21.4238 9.77637C21.4922 9.78548 21.5719 9.80143 21.6631 9.82422C21.7542 9.84701 21.818 9.87663 21.8545 9.91309C21.8955 9.94954 21.916 9.99512 21.916 10.0498C21.916 10.5876 21.8408 10.9225 21.6904 11.0547C21.4717 11.0182 21.1868 11 20.8359 11C20.5169 11 20.2207 11.016 19.9473 11.0479C19.9154 11.0251 19.8743 10.9932 19.8242 10.9521C19.7786 10.9111 19.7148 10.8063 19.6328 10.6377C19.5508 10.4691 19.5098 10.2799 19.5098 10.0703ZM17.0146 9.96777C17.4294 9.96777 17.8783 9.85384 18.3613 9.62598C18.8444 9.39355 19.1361 9.18392 19.2363 8.99707V7.78711C17.9922 8.01042 17.1514 8.21094 16.7139 8.38867C16.2809 8.56641 16.0645 8.81706 16.0645 9.14062C16.0645 9.69206 16.3812 9.96777 17.0146 9.96777ZM31.001 11.0547C30.5589 11.0182 30.1602 11 29.8047 11C29.5723 11 29.3193 11.0091 29.0459 11.0273C28.7725 11.0456 28.5924 11.0547 28.5059 11.0547C28.3509 11.0547 28.2734 10.8815 28.2734 10.5352V6.44043C28.2734 5.84798 28.1777 5.41504 27.9863 5.1416C27.7949 4.86361 27.5443 4.72461 27.2344 4.72461C26.9154 4.72461 26.5645 4.81576 26.1816 4.99805C25.8034 5.17578 25.4479 5.40365 25.1152 5.68164V9.28418C25.1152 9.35254 25.1175 9.40723 25.1221 9.44824C25.1312 9.4847 25.1471 9.52799 25.1699 9.57812C25.1973 9.62826 25.2428 9.66699 25.3066 9.69434C25.3704 9.71712 25.4525 9.72852 25.5527 9.72852C25.7259 9.72852 25.874 9.75586 25.9971 9.81055C26.1201 9.86523 26.1816 9.94727 26.1816 10.0566C26.1816 10.5898 26.1064 10.9225 25.9561 11.0547C25.6781 11.0182 25.1562 11 24.3906 11C23.625 11 23.0713 11.0182 22.7295 11.0547C22.5791 10.918 22.5039 10.5853 22.5039 10.0566C22.5039 9.94727 22.5654 9.86523 22.6885 9.81055C22.8115 9.75586 22.9596 9.72852 23.1328 9.72852C23.3105 9.72852 23.4268 9.69206 23.4814 9.61914C23.5361 9.54167 23.5635 9.43457 23.5635 9.29785V5.62695C23.5635 5.38542 23.4928 5.21452 23.3516 5.11426C23.2148 5.014 22.9482 4.95475 22.5518 4.93652C22.4925 4.92285 22.4538 4.89323 22.4355 4.84766C22.4219 4.80208 22.415 4.7041 22.415 4.55371C22.415 4.32129 22.4401 4.11621 22.4902 3.93848C22.5404 3.76074 22.5905 3.6582 22.6406 3.63086C22.9414 3.68099 23.2354 3.70605 23.5225 3.70605C23.7275 3.70605 23.944 3.69466 24.1719 3.67188C24.3997 3.64453 24.5205 3.63086 24.5342 3.63086C24.6937 3.63086 24.7962 3.67188 24.8418 3.75391C24.8919 3.83138 24.917 4.01367 24.917 4.30078C24.917 4.33268 24.9147 4.39193 24.9102 4.47852C24.9102 4.56055 24.9102 4.62663 24.9102 4.67676C25.3021 4.3304 25.7464 4.05013 26.2432 3.83594C26.7399 3.62174 27.2184 3.51465 27.6787 3.51465C28.3167 3.51465 28.834 3.74023 29.2305 4.19141C29.627 4.64258 29.8252 5.35124 29.8252 6.31738V9.25684C29.8252 9.55306 29.9391 9.71029 30.167 9.72852C30.2126 9.73307 30.2718 9.73763 30.3447 9.74219C30.4222 9.74674 30.4814 9.7513 30.5225 9.75586C30.568 9.76042 30.6227 9.76725 30.6865 9.77637C30.7503 9.78092 30.8005 9.78776 30.8369 9.79688C30.8734 9.80143 30.9144 9.81055 30.96 9.82422C31.0101 9.83333 31.0488 9.84473 31.0762 9.8584C31.1035 9.87207 31.1286 9.88802 31.1514 9.90625C31.1787 9.92448 31.1969 9.94727 31.2061 9.97461C31.2197 9.9974 31.2266 10.0247 31.2266 10.0566C31.2266 10.5853 31.1514 10.918 31.001 11.0547ZM33.2227 2.48926C33.1133 2.48926 33.0016 2.48014 32.8877 2.46191C32.7738 2.43913 32.6484 2.40039 32.5117 2.3457C32.3796 2.29102 32.2702 2.20443 32.1836 2.08594C32.1016 1.96745 32.0605 1.82617 32.0605 1.66211C32.0605 1.10156 32.4388 0.821289 33.1953 0.821289C33.4095 0.821289 33.5895 0.848633 33.7354 0.90332C33.8857 0.958008 33.9951 1.03092 34.0635 1.12207C34.1364 1.21322 34.1865 1.30208 34.2139 1.38867C34.2412 1.47526 34.2549 1.56868 34.2549 1.66895C34.2549 1.87402 34.1911 2.04264 34.0635 2.1748C33.9359 2.30697 33.7992 2.39355 33.6533 2.43457C33.512 2.47103 33.3685 2.48926 33.2227 2.48926ZM34.3506 4.30078V9.28418C34.3506 9.35254 34.3529 9.40723 34.3574 9.44824C34.3665 9.4847 34.3825 9.52799 34.4053 9.57812C34.4326 9.62826 34.4782 9.66699 34.542 9.69434C34.6058 9.71712 34.6878 9.72852 34.7881 9.72852C34.9613 9.72852 35.1094 9.75586 35.2324 9.81055C35.3555 9.86523 35.417 9.94727 35.417 10.0566C35.417 10.5898 35.3418 10.9225 35.1914 11.0547C34.7812 11.0182 34.2799 11 33.6875 11C33.0723 11 32.498 11.0182 31.9648 11.0547C31.8145 10.918 31.7393 10.5853 31.7393 10.0566C31.7393 9.94727 31.8008 9.86523 31.9238 9.81055C32.0469 9.75586 32.195 9.72852 32.3682 9.72852C32.5459 9.72852 32.6621 9.69206 32.7168 9.61914C32.7715 9.54167 32.7988 9.43457 32.7988 9.29785V5.62695C32.7988 5.38542 32.7282 5.21452 32.5869 5.11426C32.4502 5.014 32.1836 4.95475 31.7871 4.93652C31.7279 4.92285 31.6891 4.89323 31.6709 4.84766C31.6572 4.80208 31.6504 4.7041 31.6504 4.55371C31.6504 4.32129 31.6755 4.11621 31.7256 3.93848C31.7757 3.76074 31.8258 3.6582 31.876 3.63086C32.2269 3.68099 32.5664 3.70605 32.8945 3.70605C33.1133 3.70605 33.3434 3.69466 33.585 3.67188C33.8265 3.64453 33.9541 3.63086 33.9678 3.63086C34.1273 3.63086 34.2298 3.67188 34.2754 3.75391C34.3255 3.83138 34.3506 4.01367 34.3506 4.30078ZM42.9639 6.95996C42.9639 7.1696 42.9092 7.33138 42.7998 7.44531C42.695 7.55469 42.4945 7.60938 42.1982 7.60938H37.4814C37.4997 8.02409 37.5726 8.38184 37.7002 8.68262C37.8278 8.9834 37.9964 9.22038 38.2061 9.39355C38.4157 9.56217 38.6458 9.6875 38.8965 9.76953C39.1471 9.84701 39.4206 9.88574 39.7168 9.88574C40.1315 9.88574 40.5553 9.81283 40.9883 9.66699C41.4212 9.52116 41.8132 9.31608 42.1641 9.05176C42.4238 9.3571 42.5537 9.65788 42.5537 9.9541C42.5537 10.1501 42.4238 10.3438 42.1641 10.5352C41.9043 10.722 41.5534 10.877 41.1113 11C40.6693 11.123 40.209 11.1846 39.7305 11.1846C39.3385 11.1846 38.9648 11.1458 38.6094 11.0684C38.2585 10.9909 37.9121 10.8564 37.5703 10.665C37.2331 10.4691 36.9414 10.223 36.6953 9.92676C36.4492 9.63053 36.251 9.25 36.1006 8.78516C35.9502 8.32031 35.875 7.79395 35.875 7.20605C35.875 6.63184 35.9844 6.10547 36.2031 5.62695C36.4219 5.14844 36.7113 4.75879 37.0713 4.45801C37.4313 4.15267 37.8324 3.91797 38.2744 3.75391C38.721 3.58984 39.179 3.50781 39.6484 3.50781C39.9948 3.50781 40.3275 3.55111 40.6465 3.6377C40.9655 3.72428 41.2663 3.861 41.5488 4.04785C41.8314 4.23014 42.0775 4.45573 42.2871 4.72461C42.4967 4.98893 42.6608 5.3125 42.7793 5.69531C42.9023 6.07812 42.9639 6.49967 42.9639 6.95996ZM41.583 6.5498C41.542 5.91634 41.3415 5.43555 40.9814 5.10742C40.626 4.77474 40.1999 4.6084 39.7031 4.6084C39.1745 4.6084 38.6937 4.78613 38.2607 5.1416C37.8324 5.49251 37.5863 5.96191 37.5225 6.5498H41.583ZM46.1221 9.28418C46.1221 9.35254 46.1243 9.40723 46.1289 9.44824C46.138 9.4847 46.154 9.52799 46.1768 9.57812C46.2041 9.62826 46.2497 9.66699 46.3135 9.69434C46.3773 9.71712 46.4593 9.72852 46.5596 9.72852C46.7327 9.72852 46.8809 9.75586 47.0039 9.81055C47.127 9.86523 47.1885 9.94727 47.1885 10.0566C47.1885 10.5898 47.1133 10.9225 46.9629 11.0547C46.571 11.0182 46.0469 11 45.3906 11C44.6888 11 44.1374 11.0182 43.7363 11.0547C43.5859 10.918 43.5107 10.5853 43.5107 10.0566C43.5107 9.94727 43.5723 9.86523 43.6953 9.81055C43.8184 9.75586 43.9665 9.72852 44.1396 9.72852C44.3174 9.72852 44.4336 9.69206 44.4883 9.61914C44.543 9.54167 44.5703 9.43457 44.5703 9.29785V2.73535C44.5703 2.49382 44.4997 2.32292 44.3584 2.22266C44.2217 2.1224 43.9551 2.06315 43.5586 2.04492C43.4993 2.03125 43.4606 2.00163 43.4424 1.95605C43.4287 1.91048 43.4219 1.8125 43.4219 1.66211C43.4219 1.42969 43.4469 1.22461 43.4971 1.04688C43.5472 0.869141 43.5973 0.766602 43.6475 0.739258C44.0257 0.789388 44.388 0.814453 44.7344 0.814453C44.9395 0.814453 45.1559 0.80306 45.3838 0.780273C45.6117 0.75293 45.7324 0.739258 45.7461 0.739258C45.9056 0.739258 46.0081 0.780273 46.0537 0.862305C46.1038 0.939779 46.1289 1.12207 46.1289 1.40918C46.1289 1.41829 46.1289 1.43197 46.1289 1.4502C46.1243 2.09277 46.1221 4.7041 46.1221 9.28418ZM51.167 10.2686C51.5042 9.68978 52.0192 8.76921 52.7119 7.50684C53.4046 6.23991 54.1566 4.85677 54.9678 3.35742C55.779 1.85352 56.2552 0.97168 56.3965 0.711914C56.5651 0.402018 56.8135 0.24707 57.1416 0.24707C57.2874 0.24707 57.4128 0.299479 57.5176 0.404297C57.6224 0.504557 57.6748 0.638997 57.6748 0.807617C57.6748 0.953451 57.6292 1.10384 57.5381 1.25879C56.7406 2.67155 54.9928 5.85938 52.2949 10.8223C52.1172 11.1549 51.8711 11.3213 51.5566 11.3213C51.3971 11.3213 51.2695 11.2643 51.1738 11.1504C51.0827 11.041 51.0371 10.8929 51.0371 10.7061C51.0371 10.5693 51.0804 10.4235 51.167 10.2686ZM62.8428 7.34961C62.8428 7.5319 62.5352 7.92383 61.9199 8.52539C61.3092 9.1224 60.6986 9.67611 60.0879 10.1865L59.165 10.9521C59.1149 10.9886 59.0671 11.0068 59.0215 11.0068C58.9121 11.0068 58.7344 10.8701 58.4883 10.5967C58.2467 10.3232 58.126 10.109 58.126 9.9541C58.126 9.88118 58.1556 9.8151 58.2148 9.75586L61.0039 7.34961L58.2832 4.94336C58.224 4.88411 58.1943 4.81803 58.1943 4.74512C58.1943 4.59017 58.306 4.37598 58.5293 4.10254C58.7572 3.8291 58.9212 3.69238 59.0215 3.69238C59.0671 3.69238 59.1149 3.71061 59.165 3.74707C59.2152 3.78809 59.2835 3.84505 59.3701 3.91797C59.4613 3.99089 59.6344 4.13672 59.8896 4.35547C60.1449 4.56966 60.3864 4.77702 60.6143 4.97754C60.8467 5.17806 61.1042 5.41048 61.3867 5.6748C61.6738 5.93457 61.9176 6.16927 62.1182 6.37891C62.3232 6.58398 62.4941 6.77767 62.6309 6.95996C62.7721 7.1377 62.8428 7.26758 62.8428 7.34961Z" fill="black"/>
</svg>
