<svg width="72" height="73" viewBox="0 0 72 73" fill="none" xmlns="http://www.w3.org/2000/svg">
<rect y="0.223267" width="72" height="72" rx="16" fill="#1572B6"/>
<g clip-path="url(#clip0_36_39)">
<path d="M14.4219 11.6139L18.3496 55.7088L35.9738 60.6229L53.6473 55.6908L57.5781 11.6139H14.4219ZM49.4184 21.7162L48.1109 36.4057L48.1148 36.485L48.1094 36.6674V36.6658L47.1805 46.9369L47.0781 47.8494L36 50.9135L35.9914 50.9213L24.9324 47.8401L24.1836 39.3483H29.6066L29.9914 43.6662L36.0016 45.2951L36 45.2983V45.2975L42.0324 43.6455L42.6699 36.6139H30.0594L29.9512 35.4252L29.7047 32.6405L29.5754 31.1451H43.1492L43.643 25.6764H22.9688L22.8605 24.4885L22.6145 21.703L22.4848 20.2076H49.5477L49.4184 21.7162Z" fill="white"/>
</g>
<defs>
<clipPath id="clip0_36_39">
<rect width="50" height="50" fill="white" transform="translate(11 11.2233)"/>
</clipPath>
</defs>
</svg>
