<svg width="72" height="73" viewBox="0 0 72 73" fill="none" xmlns="http://www.w3.org/2000/svg">
<rect y="0.223267" width="72" height="72" rx="16" fill="#161616"/>
<path fill-rule="evenodd" clip-rule="evenodd" d="M64 16.2233C64 11.8033 60.42 8.22327 56 8.22327H16C11.58 8.22327 8 11.8033 8 16.2233V56.2233C8 60.6433 11.58 64.2233 16 64.2233H56C60.42 64.2233 64 60.6433 64 56.2233V16.2233Z" fill="#161616"/>
<path fill-rule="evenodd" clip-rule="evenodd" d="M43.01 29.2333C46.88 29.2333 50.02 32.3733 50.02 36.2433C50.02 40.1133 46.88 43.2533 43.01 43.2533C39.14 43.2533 36 40.1133 36 36.2433C36 32.3733 39.14 29.2333 43.01 29.2333Z" fill="#0CC2FF"/>
<path fill-rule="evenodd" clip-rule="evenodd" d="M50 22.2233C50 18.3533 46.87 15.2233 43 15.2233H28.98C25.11 15.2233 21.98 18.3533 21.98 22.2233C21.98 26.0933 25.11 29.2233 28.98 29.2233H43C46.87 29.2233 50 26.0933 50 22.2233Z" fill="#FF7568"/>
<path fill-rule="evenodd" clip-rule="evenodd" d="M35.99 29.2333H28.98C27.12 29.2333 25.34 29.9733 24.03 31.2833C22.72 32.5933 21.98 34.3733 21.98 36.2333C21.98 38.0933 22.72 39.8733 24.03 41.1833C25.34 42.4933 27.12 43.2333 28.98 43.2333H35.99V29.2333Z" fill="#AF5BFF"/>
<path fill-rule="evenodd" clip-rule="evenodd" d="M35.99 15.2233H28.98C27.12 15.2233 25.34 15.9633 24.03 17.2733C22.72 18.5833 21.98 20.3633 21.98 22.2233C21.98 24.0833 22.72 25.8633 24.03 27.1733C25.34 28.4833 27.12 29.2233 28.98 29.2233H35.99V15.2233Z" fill="#FF4611"/>
<path fill-rule="evenodd" clip-rule="evenodd" d="M36 43.2133H28.99C27.13 43.2133 25.35 43.9533 24.04 45.2633C22.73 46.5733 21.99 48.3533 21.99 50.2133C21.99 52.0733 22.73 53.8533 24.04 55.1633C25.35 56.4733 27.13 57.2133 28.99 57.2133C30.85 57.2133 32.63 56.4733 33.94 55.1633C35.25 53.8533 35.99 52.0733 35.99 50.2133V43.2133H36Z" fill="#00E681"/>
</svg>
