<svg width="72" height="73" viewBox="0 0 72 73" fill="none" xmlns="http://www.w3.org/2000/svg">
<rect y="0.223267" width="72" height="72" rx="16" fill="#F34F29"/>
<path d="M56.2087 34.3526L37.8747 16.0153C36.8195 14.9593 35.1071 14.9593 34.0503 16.0153L30.2439 19.8236L35.0732 24.6539C36.1958 24.275 37.4825 24.5292 38.3769 25.4238C39.2761 26.3242 39.5285 27.6221 39.1397 28.7486L43.794 33.4047C44.9199 33.0164 46.2196 33.2673 47.1183 34.1682C48.3757 35.4249 48.3757 37.4621 47.1183 38.7195C45.861 39.9771 43.8249 39.9771 42.5669 38.7195C41.6215 37.7732 41.3876 36.3841 41.8666 35.219L37.5264 30.8774L37.5257 42.3031C37.8324 42.4545 38.1215 42.6568 38.3769 42.9113C39.634 44.168 39.634 46.2046 38.3769 47.4639C37.1199 48.7206 35.0825 48.7206 33.8268 47.4639C32.5701 46.2049 32.4669 44.1683 33.7233 42.9113C34.034 42.6009 34.3404 42.3664 34.673 42.2093V30.6777C34.3404 30.5207 34.0343 30.2878 33.723 29.9754C32.7713 29.0238 32.5933 27.6264 33.0817 26.4566L28.3472 21.6944L15.7888 34.2677C14.7326 35.3248 14.7393 37.0376 15.7954 38.094L34.1325 56.4312C35.1879 57.4873 36.9017 57.4873 37.9588 56.4312L56.2074 38.1791C57.2635 37.1224 57.2645 35.4086 56.2087 34.3526Z" fill="white"/>
</svg>
