<svg width="72" height="73" viewBox="0 0 72 73" fill="none" xmlns="http://www.w3.org/2000/svg">
<rect y="0.223267" width="72" height="72" rx="16" fill="#E44D26"/>
<g clip-path="url(#clip0_36_37)">
<path d="M15.805 58.6256L11.311 8.22327H60.689L56.1903 58.6163L35.9696 64.2233L15.805 58.6256Z" fill="#E44D26"/>
<path d="M36 59.9393L52.3403 55.4103L56.1833 12.344H36V59.9393Z" fill="#F16529"/>
<path d="M36 31.0386H27.8194L27.2547 24.7082H36V18.5272H20.4997L20.6467 20.1839L22.1657 37.2196H36V31.0386ZM36 47.0919L35.972 47.0989L29.0887 45.2392L28.6477 40.3089H22.4434L23.309 50.0156L35.972 53.5296L36 53.5226V47.0919Z" fill="#EBEBEB"/>
<path d="M35.979 31.0386V37.2196H43.5904L42.8717 45.2369L35.9767 47.0966V53.5272L48.649 50.0156L48.7424 48.9702L50.196 32.6952L50.3477 31.0362H48.6817L35.979 31.0386ZM35.979 18.5272V24.7082H50.91L51.0337 23.3176L51.316 20.1839L51.463 18.5249L35.979 18.5272Z" fill="white"/>
</g>
<defs>
<clipPath id="clip0_36_37">
<rect width="56" height="56" fill="white" transform="translate(8 8.22327)"/>
</clipPath>
</defs>
</svg>
