<svg width="72" height="73" viewBox="0 0 72 73" fill="none" xmlns="http://www.w3.org/2000/svg">
<rect y="0.223267" width="72" height="72" rx="16" fill="#F0D91F"/>
<path d="M52.0199 42.243C51.291 39.5202 45.5856 38.8856 41.6839 35.9957C37.7393 33.3607 36.7989 26.9858 40.0574 23.3281C41.1722 21.9681 43.013 20.9481 44.9453 20.4807L46.9605 20.2285C50.8622 20.1407 53.2604 21.1606 55.0612 23.1581C55.5814 23.6653 55.9645 24.1781 56.7362 25.3681C54.6753 26.6402 54.6753 26.6402 51.7197 28.5555C51.0737 27.1955 50.0447 26.3455 48.9299 26.0055C47.2149 25.4955 45.0282 26.0452 44.5994 27.8755C44.4308 28.428 44.4708 28.938 44.7309 29.873C45.4255 31.4454 47.7637 32.1254 49.8675 33.1029C55.913 35.5338 57.9511 38.1404 58.4513 41.2429L58.3198 41.053C58.7943 43.7305 58.1912 45.4729 58.1083 45.7279C55.8759 53.2928 43.4418 53.5478 38.4682 48.5725C37.4391 47.3826 36.7531 46.7904 36.1529 45.4304L41.3837 42.4527C42.7986 44.5776 44.0821 45.7279 46.4002 46.2379C49.5331 46.6204 52.7059 45.5579 52.0199 42.243ZM18.7166 43.2262C18.7652 43.2262 18.8995 43.484 19.0796 43.7815C19.7456 44.8836 20.3202 45.6486 21.4521 46.2039C22.5554 46.5468 24.9851 46.7961 25.9283 44.844C26.5029 43.858 26.3228 40.6536 26.3228 37.163C26.3228 31.6636 26.3485 26.2067 26.3485 20.7158H32.7742L32.7628 20.8745C32.7628 26.7394 32.7971 32.5617 32.7628 38.3813C32.7771 41.9965 33.0858 45.2264 31.628 47.8614C30.619 49.9013 28.6896 51.2188 26.4514 51.8591C23.0128 52.6241 19.7285 52.1566 17.2845 50.7117C15.6438 49.7342 14.3718 48.1986 13.5 46.4136L18.7166 43.2262Z" fill="black"/>
</svg>
