<svg width="72" height="73" viewBox="0 0 72 73" fill="none" xmlns="http://www.w3.org/2000/svg">
<rect y="0.223267" width="72" height="72" rx="16" fill="#61DAFB"/>
<path d="M36 40.6764C38.4594 40.6764 40.4531 38.6827 40.4531 36.2233C40.4531 33.7639 38.4594 31.7701 36 31.7701C33.5406 31.7701 31.5469 33.7639 31.5469 36.2233C31.5469 38.6827 33.5406 40.6764 36 40.6764Z" fill="white"/>
<path d="M52.9141 28.8795C52.0547 28.567 51.1562 28.2545 50.2188 27.9811C50.4531 27.0436 50.6484 26.1061 50.8047 25.2076C51.625 20.0514 50.7266 16.4186 48.2266 15.0123C47.4844 14.5826 46.6641 14.3873 45.7266 14.3873C42.9922 14.3873 39.5156 16.4186 36 19.817C32.4844 16.4186 29.0078 14.3873 26.2734 14.3873C25.3359 14.3873 24.5156 14.5826 23.7734 15.0123C21.2734 16.4576 20.375 20.0905 21.1953 25.2076C21.3516 26.1061 21.5469 27.0436 21.7812 27.9811C20.8438 28.2545 19.9453 28.528 19.0859 28.8795C14.2031 30.7545 11.5469 33.3326 11.5469 36.2233C11.5469 39.1139 14.2422 41.692 19.0859 43.567C19.9453 43.8795 20.8438 44.192 21.7812 44.4655C21.5469 45.403 21.3516 46.3405 21.1953 47.2389C20.375 52.3951 21.2734 56.028 23.7734 57.4342C24.5156 57.8639 25.3359 58.0592 26.2734 58.0592C29.0469 58.0592 32.5234 56.028 36 52.6295C39.5156 56.028 42.9922 58.0592 45.7266 58.0592C46.6641 58.0592 47.4844 57.8639 48.2266 57.4342C50.7266 55.9889 51.625 52.3561 50.8047 47.2389C50.6484 46.3405 50.4531 45.403 50.2188 44.4655C51.1562 44.192 52.0547 43.9186 52.9141 43.567C57.7969 41.692 60.4531 39.1139 60.4531 36.2233C60.4531 33.3326 57.7969 30.7545 52.9141 28.8795ZM47.1328 16.9655C48.7344 17.903 49.2812 20.7936 48.6172 24.8951C48.5 25.7155 48.3047 26.5748 48.0703 27.4733C46.0391 27.0045 43.8906 26.692 41.625 26.4967C40.2969 24.6217 38.9297 22.942 37.5625 21.4186C40.4531 18.567 43.3828 16.6139 45.7656 16.6139C46.2734 16.6139 46.7422 16.7311 47.1328 16.9655ZM42.7578 40.1295C42.0547 41.3795 41.2344 42.6295 40.375 43.8795C38.9297 43.9967 37.4844 44.0358 36 44.0358C34.4766 44.0358 33.0312 43.9967 31.625 43.8795C30.7656 42.6295 29.9844 41.3795 29.2812 40.1295C28.5391 38.8405 27.8359 37.5123 27.2109 36.2233C27.8359 34.9342 28.5391 33.6061 29.2812 32.317C29.9844 31.067 30.8047 29.817 31.6641 28.567C33.1094 28.4498 34.5547 28.4108 36.0391 28.4108C37.5625 28.4108 39.0078 28.4498 40.4141 28.567C41.2734 29.817 42.0547 31.067 42.7578 32.317C43.5 33.6061 44.2031 34.9342 44.8281 36.2233C44.1641 37.5123 43.5 38.8014 42.7578 40.1295ZM46 38.8405C46.5859 40.2076 47.0547 41.5358 47.4844 42.8639C46.1562 43.1764 44.75 43.4108 43.2656 43.6061C43.7344 42.8639 44.2422 42.0826 44.6719 41.2623C45.1406 40.442 45.5703 39.6217 46 38.8405ZM36 49.4264C35.0625 48.4108 34.1641 47.317 33.3047 46.1842C34.2031 46.2233 35.1016 46.2623 36 46.2623C36.8984 46.2623 37.7969 46.2233 38.6953 46.1842C37.8359 47.317 36.9375 48.4108 36 49.4264ZM28.7344 43.567C27.25 43.3717 25.8437 43.1373 24.5156 42.8248C24.9453 41.5358 25.4141 40.1686 26 38.8014C26.4297 39.5826 26.8594 40.403 27.3281 41.1842C27.7969 42.0436 28.2656 42.7858 28.7344 43.567ZM26 33.6061C25.4141 32.2389 24.9453 30.9108 24.5156 29.5826C25.8437 29.2701 27.25 29.0358 28.7344 28.8405C28.2656 29.5826 27.7578 30.3639 27.3281 31.1842C26.8594 32.0045 26.4297 32.8248 26 33.6061ZM36 23.0201C36.9375 24.0358 37.8359 25.1295 38.6953 26.2623C37.7969 26.2233 36.8984 26.1842 36 26.1842C35.1016 26.1842 34.2031 26.2233 33.3047 26.2623C34.1641 25.1295 35.0625 24.0358 36 23.0201ZM44.6719 31.2233L43.2656 28.8795C44.75 29.0748 46.1562 29.3092 47.4844 29.6217C47.0547 30.9108 46.5859 32.278 46 33.6451C45.5703 32.8248 45.1406 32.0045 44.6719 31.2233ZM23.3828 24.8951C22.7188 20.7936 23.2656 17.903 24.8672 16.9655C25.2578 16.7311 25.7266 16.6139 26.2344 16.6139C28.5781 16.6139 31.5078 18.528 34.4375 21.4186C33.0703 22.903 31.7031 24.6217 30.375 26.4967C28.1094 26.692 25.9609 27.0436 23.9297 27.4733C23.6953 26.5748 23.5391 25.7155 23.3828 24.8951ZM13.7344 36.2233C13.7344 34.3873 15.9609 32.4342 19.8672 30.9889C20.6484 30.6764 21.5078 30.403 22.3672 30.1686C22.9922 32.1217 23.7734 34.192 24.7109 36.2623C23.7734 38.3326 22.9531 40.3639 22.3672 42.317C16.9766 40.7545 13.7344 38.4108 13.7344 36.2233ZM24.8672 55.4811C23.2656 54.5436 22.7188 51.653 23.3828 47.5514C23.5 46.7311 23.6953 45.8717 23.9297 44.9733C25.9609 45.442 28.1094 45.7545 30.375 45.9498C31.7031 47.8248 33.0703 49.5045 34.4375 51.028C31.5469 53.8795 28.6172 55.8326 26.2344 55.8326C25.7266 55.8326 25.2578 55.7155 24.8672 55.4811ZM48.6172 47.5514C49.2812 51.653 48.7344 54.5436 47.1328 55.4811C46.7422 55.7155 46.2734 55.8326 45.7656 55.8326C43.4219 55.8326 40.4922 53.9186 37.5625 51.028C38.9297 49.5436 40.2969 47.8248 41.625 45.9498C43.8906 45.7545 46.0391 45.403 48.0703 44.9733C48.3047 45.8717 48.4609 46.7311 48.6172 47.5514ZM52.1328 41.4576C51.3516 41.7701 50.4922 42.0436 49.6328 42.278C49.0078 40.3248 48.2266 38.2545 47.2891 36.1842C48.2266 34.1139 49.0469 32.0826 49.6328 30.1295C55.0234 31.692 58.2656 34.0358 58.2656 36.2233C58.2656 38.0592 56 40.0123 52.1328 41.4576Z" fill="white"/>
</svg>
