<svg width="72" height="73" viewBox="0 0 72 73" fill="none" xmlns="http://www.w3.org/2000/svg">
<rect y="0.223267" width="72" height="72" rx="16" fill="#39BCF9"/>
<path d="M52.7917 29.7907C50.8543 29.1235 49.1442 27.9237 47.8575 26.3291C46.4394 24.5523 44.6336 23.1235 42.5785 22.1519C40.5233 21.1802 38.2731 20.6916 36 20.7232C32.9423 20.5067 29.9152 21.4498 27.5215 23.3647C25.1278 25.2796 23.5433 28.0259 23.0833 31.0566C23.9892 29.5408 25.3527 28.3515 26.9774 27.6598C28.6022 26.9681 30.4045 26.8097 32.125 27.2074C34.0591 27.8941 35.7664 29.1008 37.0592 30.6949C38.4851 32.4574 40.2942 33.8715 42.349 34.8295C44.4037 35.7875 46.6499 36.2642 48.9167 36.2232C51.9744 36.4398 55.0015 35.4967 57.3951 33.5818C59.7888 31.6668 61.3734 28.9206 61.8333 25.8899C60.9439 27.4238 59.5848 28.6311 57.9567 29.3335C56.3286 30.0359 54.5178 30.1962 52.7917 29.7907ZM19.2083 42.6557C21.1457 43.323 22.8558 44.5227 24.1425 46.1174C25.5606 47.8941 27.3663 49.323 29.4215 50.2946C31.4767 51.2662 33.7269 51.7549 36 51.7232C39.0577 51.9398 42.0848 50.9967 44.4785 49.0818C46.8721 47.1668 48.4567 44.4206 48.9167 41.3899C48.0108 42.9057 46.6473 44.095 45.0226 44.7867C43.3978 45.4784 41.5955 45.6368 39.875 45.2391C37.9409 44.5524 36.2336 43.3457 34.9408 41.7516C33.5111 39.9934 31.7012 38.5824 29.6473 37.6248C27.5935 36.6673 25.3492 36.188 23.0833 36.2232C20.0256 36.0067 16.9985 36.9498 14.6048 38.8647C12.2112 40.7796 10.6266 43.5259 10.1667 46.5566C11.0561 45.0227 12.4152 43.8154 14.0433 43.113C15.6714 42.4106 17.4822 42.2503 19.2083 42.6557Z" fill="white"/>
</svg>
