<svg width="72" height="73" viewBox="0 0 72 73" fill="none" xmlns="http://www.w3.org/2000/svg">
<rect y="0.223267" width="72" height="72" rx="16" fill="white"/>
<path d="M46.0025 17.8187C46.0025 16.563 44.5969 16.563 43.9719 16.72C44.8465 16.0294 45.8725 16.1968 46.2369 16.4061L54.6845 20.5482C55.4895 20.9429 56.0002 21.7641 56.0002 22.6641V49.9136C56.0002 50.8256 55.4759 51.6553 54.6545 52.0436L46.7055 55.8023C46.1589 56.0376 44.9715 56.6186 43.9719 55.8023C45.2215 56.038 45.8985 55.1483 46.0025 54.5466V17.8187Z" fill="url(#paint0_linear_36_50)"/>
<path d="M44.0731 16.6972C44.7361 16.5661 46.0025 16.6269 46.0025 17.8186V27.1981L20.3906 46.5735C19.943 46.9121 19.3129 46.8561 18.9316 46.4435L16.292 43.5871C15.8784 43.1398 15.9074 42.4391 16.3564 42.0278L43.9715 16.7198L44.0731 16.6972Z" fill="url(#paint1_linear_36_50)"/>
<path d="M46.0025 45.324L20.3906 25.9485C19.943 25.6099 19.3129 25.666 18.9316 26.0786L16.292 28.935C15.8784 29.3823 15.9074 30.083 16.3564 30.4943L43.9715 55.8023C45.2211 56.0377 45.8981 55.1483 46.0025 54.5467V45.324Z" fill="url(#paint2_linear_36_50)"/>
<defs>
<linearGradient id="paint0_linear_36_50" x1="49.9859" y1="16.2233" x2="49.9859" y2="56.2233" gradientUnits="userSpaceOnUse">
<stop stop-color="#32B5F1"/>
<stop offset="1" stop-color="#2B9FED"/>
</linearGradient>
<linearGradient id="paint1_linear_36_50" x1="46.0025" y1="21.2714" x2="17.4594" y2="45.2305" gradientUnits="userSpaceOnUse">
<stop stop-color="#0F6FB3"/>
<stop offset="0.271" stop-color="#1279B7"/>
<stop offset="0.421" stop-color="#1176B5"/>
<stop offset="0.618" stop-color="#0E69AC"/>
<stop offset="0.855" stop-color="#0F70AF"/>
<stop offset="1" stop-color="#0F6DAD"/>
</linearGradient>
<linearGradient id="paint2_linear_36_50" x1="17.6501" y1="27.6283" x2="46.1128" y2="51.1953" gradientUnits="userSpaceOnUse">
<stop stop-color="#1791D2"/>
<stop offset="1" stop-color="#1173C5"/>
</linearGradient>
</defs>
</svg>
